<svg width="33" height="32" viewBox="0 0 33 32" fill="none" xmlns="http://www.w3.org/2000/svg">
<path d="M19.4966 24V8.00004C19.4966 7.2928 19.2156 6.61452 18.7155 6.11442C18.2154 5.61433 17.5372 5.33337 16.8299 5.33337H6.16325C5.456 5.33337 4.77773 5.61433 4.27763 6.11442C3.77753 6.61452 3.49658 7.2928 3.49658 8.00004V22.6667C3.49658 23.0203 3.63706 23.3595 3.88711 23.6095C4.13715 23.8596 4.47629 24 4.82992 24H7.49658" stroke="#DB2777" stroke-width="2.66667" stroke-linecap="round" stroke-linejoin="round"/>
<path d="M20.8301 24H12.8301" stroke="#DB2777" stroke-width="2.66667" stroke-linecap="round" stroke-linejoin="round"/>
<path d="M26.1632 24H28.8299C29.1835 24 29.5227 23.8595 29.7727 23.6094C30.0228 23.3594 30.1632 23.0202 30.1632 22.6666V17.8C30.1627 17.4974 30.0593 17.204 29.8699 16.968L25.2299 11.168C25.1052 11.0118 24.947 10.8857 24.767 10.7989C24.587 10.7121 24.3898 10.6669 24.1899 10.6666H19.4966" stroke="#DB2777" stroke-width="2.66667" stroke-linecap="round" stroke-linejoin="round"/>
<path d="M23.4967 26.6667C24.9695 26.6667 26.1634 25.4728 26.1634 24C26.1634 22.5273 24.9695 21.3334 23.4967 21.3334C22.024 21.3334 20.8301 22.5273 20.8301 24C20.8301 25.4728 22.024 26.6667 23.4967 26.6667Z" stroke="#DB2777" stroke-width="2.66667" stroke-linecap="round" stroke-linejoin="round"/>
<path d="M10.1632 26.6667C11.636 26.6667 12.8299 25.4728 12.8299 24C12.8299 22.5273 11.636 21.3334 10.1632 21.3334C8.69049 21.3334 7.49658 22.5273 7.49658 24C7.49658 25.4728 8.69049 26.6667 10.1632 26.6667Z" stroke="#DB2777" stroke-width="2.66667" stroke-linecap="round" stroke-linejoin="round"/>
</svg>
