<svg width="33" height="32" viewBox="0 0 33 32" fill="none" xmlns="http://www.w3.org/2000/svg">
<path d="M24.4801 2.66663H8.48014C7.00738 2.66663 5.81348 3.86053 5.81348 5.33329V26.6666C5.81348 28.1394 7.00738 29.3333 8.48014 29.3333H24.4801C25.9529 29.3333 27.1468 28.1394 27.1468 26.6666V5.33329C27.1468 3.86053 25.9529 2.66663 24.4801 2.66663Z" stroke="#DB2777" stroke-width="2.66667" stroke-linecap="round" stroke-linejoin="round"/>
<path d="M12.48 29.3333V24H20.48V29.3333" stroke="#DB2777" stroke-width="2.66667" stroke-linecap="round" stroke-linejoin="round"/>
<path d="M11.1465 8H11.1598" stroke="#DB2777" stroke-width="2.66667" stroke-linecap="round" stroke-linejoin="round"/>
<path d="M21.8135 8H21.8268" stroke="#DB2777" stroke-width="2.66667" stroke-linecap="round" stroke-linejoin="round"/>
<path d="M16.48 8H16.4933" stroke="#DB2777" stroke-width="2.66667" stroke-linecap="round" stroke-linejoin="round"/>
<path d="M16.48 13.3334H16.4933" stroke="#DB2777" stroke-width="2.66667" stroke-linecap="round" stroke-linejoin="round"/>
<path d="M16.48 18.6666H16.4933" stroke="#DB2777" stroke-width="2.66667" stroke-linecap="round" stroke-linejoin="round"/>
<path d="M21.8135 13.3334H21.8268" stroke="#DB2777" stroke-width="2.66667" stroke-linecap="round" stroke-linejoin="round"/>
<path d="M21.8135 18.6666H21.8268" stroke="#DB2777" stroke-width="2.66667" stroke-linecap="round" stroke-linejoin="round"/>
<path d="M11.1465 13.3334H11.1598" stroke="#DB2777" stroke-width="2.66667" stroke-linecap="round" stroke-linejoin="round"/>
<path d="M11.1465 18.6666H11.1598" stroke="#DB2777" stroke-width="2.66667" stroke-linecap="round" stroke-linejoin="round"/>
</svg>
