<svg width="33" height="32" viewBox="0 0 33 32" fill="none" xmlns="http://www.w3.org/2000/svg">
<path d="M23.8935 25.6L21.4935 14.6667L26.1602 10C28.1602 8 28.8268 5.33333 28.1602 4C26.8268 3.33333 24.1602 4 22.1602 6L17.4935 10.6667L6.56016 8.26667C5.89349 8.13333 5.36016 8.4 5.09349 8.93333L4.69349 9.6C4.42682 10.2667 4.56016 10.9333 5.09349 11.3333L12.1602 16L9.49349 20H5.49349L4.16016 21.3333L8.16016 24L10.8268 28L12.1602 26.6667V22.6667L16.1602 20L20.8268 27.0667C21.2268 27.6 21.8935 27.7333 22.5602 27.4667L23.2268 27.2C23.7602 26.8 24.0268 26.2667 23.8935 25.6Z" stroke="#DB2777" stroke-width="2.66667" stroke-linecap="round" stroke-linejoin="round"/>
</svg>
