<svg width="17" height="16" viewBox="0 0 17 16" fill="none" xmlns="http://www.w3.org/2000/svg">
<path d="M13.8332 8.66664C13.8332 12 11.4998 13.6666 8.7265 14.6333C8.58128 14.6825 8.42353 14.6802 8.27984 14.6266C5.49984 13.6666 3.1665 12 3.1665 8.66664V3.99997C3.1665 3.82316 3.23674 3.65359 3.36177 3.52857C3.48679 3.40355 3.65636 3.33331 3.83317 3.33331C5.1665 3.33331 6.83317 2.53331 7.99317 1.51997C8.13441 1.39931 8.31407 1.33301 8.49984 1.33301C8.6856 1.33301 8.86527 1.39931 9.0065 1.51997C10.1732 2.53997 11.8332 3.33331 13.1665 3.33331C13.3433 3.33331 13.5129 3.40355 13.6379 3.52857C13.7629 3.65359 13.8332 3.82316 13.8332 3.99997V8.66664Z" stroke="#DB2777" stroke-width="1.33333" stroke-linecap="round" stroke-linejoin="round"/>
</svg>
