<svg width="17" height="16" viewBox="0 0 17 16" fill="none" xmlns="http://www.w3.org/2000/svg">
<path d="M9.8335 11.9998V3.99984C9.8335 3.64622 9.69302 3.30708 9.44297 3.05703C9.19292 2.80698 8.85378 2.6665 8.50016 2.6665H3.16683C2.81321 2.6665 2.47407 2.80698 2.22402 3.05703C1.97397 3.30708 1.8335 3.64622 1.8335 3.99984V11.3332C1.8335 11.51 1.90373 11.6796 2.02876 11.8046C2.15378 11.9296 2.32335 11.9998 2.50016 11.9998H3.8335" stroke="#DB2777" stroke-width="1.33333" stroke-linecap="round" stroke-linejoin="round"/>
<path d="M10.5 12H6.5" stroke="#DB2777" stroke-width="1.33333" stroke-linecap="round" stroke-linejoin="round"/>
<path d="M13.1668 12.0002H14.5002C14.677 12.0002 14.8465 11.9299 14.9716 11.8049C15.0966 11.6799 15.1668 11.5103 15.1668 11.3335V8.90016C15.1666 8.74887 15.1148 8.60217 15.0202 8.48416L12.7002 5.58416C12.6378 5.50608 12.5587 5.44302 12.4687 5.39963C12.3787 5.35624 12.2801 5.33364 12.1802 5.3335H9.8335" stroke="#DB2777" stroke-width="1.33333" stroke-linecap="round" stroke-linejoin="round"/>
<path d="M11.8333 13.3332C12.5697 13.3332 13.1667 12.7362 13.1667 11.9998C13.1667 11.2635 12.5697 10.6665 11.8333 10.6665C11.097 10.6665 10.5 11.2635 10.5 11.9998C10.5 12.7362 11.097 13.3332 11.8333 13.3332Z" stroke="#DB2777" stroke-width="1.33333" stroke-linecap="round" stroke-linejoin="round"/>
<path d="M5.16683 13.3332C5.90321 13.3332 6.50016 12.7362 6.50016 11.9998C6.50016 11.2635 5.90321 10.6665 5.16683 10.6665C4.43045 10.6665 3.8335 11.2635 3.8335 11.9998C3.8335 12.7362 4.43045 13.3332 5.16683 13.3332Z" stroke="#DB2777" stroke-width="1.33333" stroke-linecap="round" stroke-linejoin="round"/>
</svg>
