<svg width="25" height="24" viewBox="0 0 25 24" fill="none" xmlns="http://www.w3.org/2000/svg">
<path d="M16.1602 21V19C16.1602 17.9391 15.7387 16.9217 14.9886 16.1716C14.2384 15.4214 13.221 15 12.1602 15H6.16016C5.09929 15 4.08187 15.4214 3.33173 16.1716C2.58158 16.9217 2.16016 17.9391 2.16016 19V21" stroke="#DB2777" stroke-width="2" stroke-linecap="round" stroke-linejoin="round"/>
<path d="M9.16016 11C11.3693 11 13.1602 9.20914 13.1602 7C13.1602 4.79086 11.3693 3 9.16016 3C6.95102 3 5.16016 4.79086 5.16016 7C5.16016 9.20914 6.95102 11 9.16016 11Z" stroke="#DB2777" stroke-width="2" stroke-linecap="round" stroke-linejoin="round"/>
<path d="M22.1602 20.9999V18.9999C22.1595 18.1136 21.8645 17.2527 21.3215 16.5522C20.7785 15.8517 20.0183 15.3515 19.1602 15.1299" stroke="#DB2777" stroke-width="2" stroke-linecap="round" stroke-linejoin="round"/>
<path d="M16.1602 3.12988C17.0206 3.35018 17.7832 3.85058 18.3278 4.55219C18.8724 5.2538 19.168 6.11671 19.168 7.00488C19.168 7.89305 18.8724 8.75596 18.3278 9.45757C17.7832 10.1592 17.0206 10.6596 16.1602 10.8799" stroke="#DB2777" stroke-width="2" stroke-linecap="round" stroke-linejoin="round"/>
</svg>
