<svg width="25" height="24" viewBox="0 0 25 24" fill="none" xmlns="http://www.w3.org/2000/svg">
<path d="M14.1602 18V6C14.1602 5.46957 13.9494 4.96086 13.5744 4.58579C13.1993 4.21071 12.6906 4 12.1602 4H4.16016C3.62972 4 3.12102 4.21071 2.74594 4.58579C2.37087 4.96086 2.16016 5.46957 2.16016 6V17C2.16016 17.2652 2.26551 17.5196 2.45305 17.7071C2.64059 17.8946 2.89494 18 3.16016 18H5.16016" stroke="#DB2777" stroke-width="2" stroke-linecap="round" stroke-linejoin="round"/>
<path d="M15.1602 18H9.16016" stroke="#DB2777" stroke-width="2" stroke-linecap="round" stroke-linejoin="round"/>
<path d="M19.1602 18H21.1602C21.4254 18 21.6797 17.8946 21.8673 17.7071C22.0548 17.5196 22.1602 17.2652 22.1602 17V13.35C22.1598 13.1231 22.0822 12.903 21.9402 12.726L18.4602 8.376C18.3666 8.25888 18.248 8.16428 18.113 8.0992C17.978 8.03412 17.83 8.00021 17.6802 8H14.1602" stroke="#DB2777" stroke-width="2" stroke-linecap="round" stroke-linejoin="round"/>
<path d="M17.1602 20C18.2647 20 19.1602 19.1046 19.1602 18C19.1602 16.8954 18.2647 16 17.1602 16C16.0556 16 15.1602 16.8954 15.1602 18C15.1602 19.1046 16.0556 20 17.1602 20Z" stroke="#DB2777" stroke-width="2" stroke-linecap="round" stroke-linejoin="round"/>
<path d="M7.16016 20C8.26473 20 9.16016 19.1046 9.16016 18C9.16016 16.8954 8.26473 16 7.16016 16C6.05559 16 5.16016 16.8954 5.16016 18C5.16016 19.1046 6.05559 20 7.16016 20Z" stroke="#DB2777" stroke-width="2" stroke-linecap="round" stroke-linejoin="round"/>
</svg>
