<svg width="25" height="24" viewBox="0 0 25 24" fill="none" xmlns="http://www.w3.org/2000/svg">
<path d="M20.5 13.0004C20.5 18.0004 17 20.5005 12.84 21.9505C12.6222 22.0243 12.3855 22.0207 12.17 21.9405C8 20.5005 4.5 18.0004 4.5 13.0004V6.00045C4.5 5.73523 4.60536 5.48088 4.79289 5.29334C4.98043 5.10581 5.23478 5.00045 5.5 5.00045C7.5 5.00045 10 3.80045 11.74 2.28045C11.9519 2.09945 12.2214 2 12.5 2C12.7786 2 13.0481 2.09945 13.26 2.28045C15.01 3.81045 17.5 5.00045 19.5 5.00045C19.7652 5.00045 20.0196 5.10581 20.2071 5.29334C20.3946 5.48088 20.5 5.73523 20.5 6.00045V13.0004Z" stroke="#DB2777" stroke-width="2" stroke-linecap="round" stroke-linejoin="round"/>
</svg>
