<svg width="41" height="40" viewBox="0 0 41 40" fill="none" xmlns="http://www.w3.org/2000/svg">
<path d="M7.32665 23.3333C7.01126 23.3344 6.70203 23.246 6.4349 23.0783C6.16777 22.9106 5.9537 22.6706 5.81756 22.3861C5.68142 22.1016 5.6288 21.7843 5.66581 21.4711C5.70282 21.1579 5.82795 20.8616 6.02665 20.6167L22.5266 3.61665C22.6504 3.47379 22.8191 3.37725 23.0049 3.34287C23.1908 3.3085 23.3829 3.33834 23.5495 3.42749C23.7162 3.51665 23.8476 3.65981 23.9222 3.8335C23.9968 4.00719 24.0101 4.20107 23.96 4.38332L20.76 14.4167C20.6656 14.6692 20.6339 14.9409 20.6676 15.2083C20.7013 15.4758 20.7994 15.7311 20.9535 15.9524C21.1075 16.1736 21.3129 16.3542 21.5521 16.4786C21.7913 16.603 22.0571 16.6675 22.3266 16.6667H33.9933C34.3087 16.6656 34.6179 16.754 34.8851 16.9217C35.1522 17.0894 35.3663 17.3294 35.5024 17.6139C35.6385 17.8984 35.6912 18.2157 35.6541 18.5289C35.6171 18.8421 35.492 19.1384 35.2933 19.3833L18.7933 36.3833C18.6695 36.5262 18.5009 36.6227 18.315 36.6571C18.1291 36.6915 17.9371 36.6616 17.7704 36.5725C17.6038 36.4833 17.4723 36.3402 17.3978 36.1665C17.3232 35.9928 17.3099 35.7989 17.36 35.6167L20.56 25.5833C20.6543 25.3308 20.686 25.0591 20.6523 24.7916C20.6186 24.5242 20.5205 24.2689 20.3665 24.0476C20.2124 23.8264 20.007 23.6458 19.7679 23.5214C19.5287 23.397 19.2629 23.3324 18.9933 23.3333H7.32665Z" stroke="#F23481" stroke-width="3.33333" stroke-linecap="round" stroke-linejoin="round"/>
</svg>
