<svg width="41" height="40" viewBox="0 0 41 40" fill="none" xmlns="http://www.w3.org/2000/svg">
<path d="M17.5422 25.8334C17.3934 25.2566 17.0928 24.7302 16.6716 24.309C16.2504 23.8878 15.724 23.5872 15.1472 23.4384L4.9222 20.8017C4.74775 20.7522 4.59421 20.6471 4.48489 20.5024C4.37556 20.3578 4.31641 20.1814 4.31641 20C4.31641 19.8187 4.37556 19.6423 4.48489 19.4976C4.59421 19.3529 4.74775 19.2479 4.9222 19.1984L15.1472 16.56C15.7238 16.4114 16.25 16.111 16.6712 15.6901C17.0924 15.2692 17.3931 14.7432 17.5422 14.1667L20.1789 3.9417C20.2279 3.76656 20.3328 3.61226 20.4777 3.50235C20.6226 3.39244 20.7995 3.33295 20.9814 3.33295C21.1632 3.33295 21.3401 3.39244 21.485 3.50235C21.6299 3.61226 21.7349 3.76656 21.7839 3.9417L24.4189 14.1667C24.5677 14.7435 24.8683 15.2699 25.2895 15.6911C25.7107 16.1123 26.2371 16.4129 26.8139 16.5617L37.0389 19.1967C37.2147 19.2452 37.3698 19.35 37.4803 19.4952C37.5908 19.6403 37.6506 19.8176 37.6506 20C37.6506 20.1824 37.5908 20.3598 37.4803 20.5049C37.3698 20.65 37.2147 20.7549 37.0389 20.8034L26.8139 23.4384C26.2371 23.5872 25.7107 23.8878 25.2895 24.309C24.8683 24.7302 24.5677 25.2566 24.4189 25.8334L21.7822 36.0584C21.7332 36.2335 21.6282 36.3878 21.4833 36.4977C21.3384 36.6076 21.1616 36.6671 20.9797 36.6671C20.7978 36.6671 20.621 36.6076 20.4761 36.4977C20.3312 36.3878 20.2262 36.2335 20.1772 36.0584L17.5422 25.8334Z" stroke="#F23481" stroke-width="3.33333" stroke-linecap="round" stroke-linejoin="round"/>
<path d="M34.3135 5V11.6667" stroke="#F23481" stroke-width="3.33333" stroke-linecap="round" stroke-linejoin="round"/>
<path d="M37.6471 8.33331H30.9805" stroke="#F23481" stroke-width="3.33333" stroke-linecap="round" stroke-linejoin="round"/>
<path d="M7.64746 28.3333V31.6666" stroke="#F23481" stroke-width="3.33333" stroke-linecap="round" stroke-linejoin="round"/>
<path d="M9.3138 30H5.98047" stroke="#F23481" stroke-width="3.33333" stroke-linecap="round" stroke-linejoin="round"/>
</svg>
