<svg width="41" height="40" viewBox="0 0 41 40" fill="none" xmlns="http://www.w3.org/2000/svg">
<path d="M10.3301 3.33331L5.33008 9.99998V33.3333C5.33008 34.2174 5.68127 35.0652 6.30639 35.6903C6.93151 36.3155 7.77936 36.6666 8.66341 36.6666H31.9967C32.8808 36.6666 33.7286 36.3155 34.3538 35.6903C34.9789 35.0652 35.3301 34.2174 35.3301 33.3333V9.99998L30.3301 3.33331H10.3301Z" stroke="#F23481" stroke-width="3.33333" stroke-linecap="round" stroke-linejoin="round"/>
<path d="M5.33008 10H35.3301" stroke="#F23481" stroke-width="3.33333" stroke-linecap="round" stroke-linejoin="round"/>
<path d="M26.9964 16.6667C26.9964 18.4348 26.294 20.1305 25.0438 21.3807C23.7936 22.631 22.0979 23.3334 20.3298 23.3334C18.5616 23.3334 16.8659 22.631 15.6157 21.3807C14.3655 20.1305 13.6631 18.4348 13.6631 16.6667" stroke="#F23481" stroke-width="3.33333" stroke-linecap="round" stroke-linejoin="round"/>
</svg>
