<svg width="33" height="32" viewBox="0 0 33 32" fill="none" xmlns="http://www.w3.org/2000/svg">
<path d="M21.6686 28V25.3333C21.6686 23.9188 21.1067 22.5623 20.1065 21.5621C19.1063 20.5619 17.7498 20 16.3353 20H8.33529C6.9208 20 5.56424 20.5619 4.56405 21.5621C3.56386 22.5623 3.00195 23.9188 3.00195 25.3333V28" stroke="white" stroke-width="2.66667" stroke-linecap="round" stroke-linejoin="round"/>
<path d="M12.3353 14.6667C15.2808 14.6667 17.6686 12.2789 17.6686 9.33333C17.6686 6.38781 15.2808 4 12.3353 4C9.38977 4 7.00195 6.38781 7.00195 9.33333C7.00195 12.2789 9.38977 14.6667 12.3353 14.6667Z" stroke="white" stroke-width="2.66667" stroke-linecap="round" stroke-linejoin="round"/>
<path d="M29.6699 28V25.3333C29.669 24.1516 29.2757 23.0037 28.5517 22.0698C27.8278 21.1358 26.8141 20.4688 25.6699 20.1733" stroke="white" stroke-width="2.66667" stroke-linecap="round" stroke-linejoin="round"/>
<path d="M21.6699 4.17334C22.8171 4.46707 23.834 5.13427 24.5601 6.06975C25.2862 7.00523 25.6804 8.15578 25.6804 9.34001C25.6804 10.5242 25.2862 11.6748 24.5601 12.6103C23.834 13.5457 22.8171 14.2129 21.6699 14.5067" stroke="white" stroke-width="2.66667" stroke-linecap="round" stroke-linejoin="round"/>
</svg>
