<svg width="33" height="32" viewBox="0 0 33 32" fill="none" xmlns="http://www.w3.org/2000/svg">
<path d="M27.6517 17.3333C27.6517 23.9999 22.985 27.3333 17.4384 29.2666C17.1479 29.365 16.8324 29.3603 16.545 29.2533C10.985 27.3333 6.31836 23.9999 6.31836 17.3333V7.99995C6.31836 7.64633 6.45884 7.30719 6.70888 7.05714C6.95893 6.80709 7.29807 6.66662 7.65169 6.66662C10.3184 6.66662 13.6517 5.06662 15.9717 3.03995C16.2542 2.79861 16.6135 2.66602 16.985 2.66602C17.3566 2.66602 17.7159 2.79861 17.9984 3.03995C20.3317 5.07995 23.6517 6.66662 26.3184 6.66662C26.672 6.66662 27.0111 6.80709 27.2612 7.05714C27.5112 7.30719 27.6517 7.64633 27.6517 7.99995V17.3333Z" stroke="white" stroke-width="2.66667" stroke-linecap="round" stroke-linejoin="round"/>
</svg>
