<svg width="48" height="48" viewBox="0 0 48 48" fill="none" xmlns="http://www.w3.org/2000/svg">
<path d="M29.4007 12.6C29.0342 12.9738 28.829 13.4765 28.829 14C28.829 14.5235 29.0342 15.0261 29.4007 15.4L32.6007 18.6C32.9745 18.9664 33.4772 19.1717 34.0007 19.1717C34.5242 19.1717 35.0268 18.9664 35.4007 18.6L42.9407 11.06C43.9464 13.2823 44.2509 15.7584 43.8136 18.1583C43.3763 20.5581 42.2181 22.7676 40.4932 24.4925C38.7684 26.2174 36.5588 27.3756 34.159 27.8129C31.7592 28.2501 29.2831 27.9456 27.0607 26.94L13.2407 40.76C12.445 41.5556 11.3659 42.0026 10.2407 42.0026C9.11547 42.0026 8.03634 41.5556 7.24069 40.76C6.44504 39.9643 5.99805 38.8852 5.99805 37.76C5.99805 36.6347 6.44504 35.5556 7.24069 34.76L21.0607 20.94C20.055 18.7176 19.7505 16.2415 20.1878 13.8417C20.625 11.4418 21.7833 9.23227 23.5081 7.5074C25.233 5.78253 27.4426 4.6243 29.8424 4.18704C32.2422 3.74979 34.7183 4.05429 36.9407 5.05996L29.4207 12.58L29.4007 12.6Z" stroke="white" stroke-width="4" stroke-linecap="round" stroke-linejoin="round"/>
</svg>
