<svg width="48" height="48" viewBox="0 0 48 48" fill="none" xmlns="http://www.w3.org/2000/svg">
<path d="M18 24H18.02" stroke="white" stroke-width="4" stroke-linecap="round" stroke-linejoin="round"/>
<path d="M30 24H30.02" stroke="white" stroke-width="4" stroke-linecap="round" stroke-linejoin="round"/>
<path d="M20 32C21 32.6 22.4 33 24 33C25.6 33 27 32.6 28 32" stroke="white" stroke-width="4" stroke-linecap="round" stroke-linejoin="round"/>
<path d="M38.001 12.6C39.8129 14.8713 41.0481 17.5476 41.601 20.4C42.2773 20.7275 42.8476 21.239 43.2467 21.8756C43.6458 22.5123 43.8574 23.2486 43.8574 24C43.8574 24.7514 43.6458 25.4877 43.2467 26.1244C42.8476 26.761 42.2773 27.2725 41.601 27.6C40.7376 31.627 38.5193 35.2361 35.3163 37.8251C32.1134 40.4141 28.1195 41.8264 24.001 41.8264C19.8825 41.8264 15.8886 40.4141 12.6856 37.8251C9.48264 35.2361 7.26439 31.627 6.40097 27.6C5.72469 27.2725 5.15434 26.761 4.75527 26.1244C4.35619 25.4877 4.14453 24.7514 4.14453 24C4.14453 23.2486 4.35619 22.5123 4.75527 21.8756C5.15434 21.239 5.72469 20.7275 6.40097 20.4C7.2295 16.341 9.43276 12.692 12.639 10.0687C15.8453 7.44542 19.8583 6.00836 24.001 6C28.001 6 31.001 8.2 31.001 11C31.001 13.8 29.201 16 27.001 16C25.401 16 24.001 15.2 24.001 14" stroke="white" stroke-width="4" stroke-linecap="round" stroke-linejoin="round"/>
</svg>
