<svg width="17" height="16" viewBox="0 0 17 16" fill="none" xmlns="http://www.w3.org/2000/svg">
<path d="M13.9933 8.66664C13.9933 12 11.66 13.6666 8.88666 14.6333C8.74144 14.6825 8.58369 14.6802 8.43999 14.6266C5.65999 13.6666 3.32666 12 3.32666 8.66664V3.99997C3.32666 3.82316 3.3969 3.65359 3.52192 3.52857C3.64695 3.40355 3.81652 3.33331 3.99333 3.33331C5.32666 3.33331 6.99333 2.53331 8.15333 1.51997C8.29456 1.39931 8.47423 1.33301 8.65999 1.33301C8.84576 1.33301 9.02542 1.39931 9.16666 1.51997C10.3333 2.53997 11.9933 3.33331 13.3267 3.33331C13.5035 3.33331 13.673 3.40355 13.7981 3.52857C13.9231 3.65359 13.9933 3.82316 13.9933 3.99997V8.66664Z" stroke="#6B7280" stroke-width="1.33333" stroke-linecap="round" stroke-linejoin="round"/>
</svg>
