<svg width="33" height="32" viewBox="0 0 33 32" fill="none" xmlns="http://www.w3.org/2000/svg">
<path d="M24.0634 25.6L21.6634 14.6667L26.3301 10C28.3301 8 28.9967 5.33333 28.3301 4C26.9967 3.33333 24.3301 4 22.3301 6L17.6634 10.6667L6.73008 8.26667C6.06341 8.13333 5.53008 8.4 5.26341 8.93333L4.86341 9.6C4.59674 10.2667 4.73008 10.9333 5.26341 11.3333L12.3301 16L9.66341 20H5.66341L4.33008 21.3333L8.33008 24L10.9967 28L12.3301 26.6667V22.6667L16.3301 20L20.9967 27.0667C21.3967 27.6 22.0634 27.7333 22.7301 27.4667L23.3967 27.2C23.9301 26.8 24.1967 26.2667 24.0634 25.6Z" stroke="#4B5563" stroke-width="2.66667" stroke-linecap="round" stroke-linejoin="round"/>
</svg>
