<svg width="16" height="17" viewBox="0 0 16 17" fill="none" xmlns="http://www.w3.org/2000/svg">
<path d="M11.8667 13.05L10.6667 7.58333L13 5.25C14 4.25 14.3333 2.91667 14 2.25C13.3333 1.91667 12 2.25 11 3.25L8.66667 5.58333L3.2 4.38333C2.86667 4.31667 2.6 4.45 2.46667 4.71667L2.26667 5.05C2.13333 5.38333 2.2 5.71667 2.46667 5.91667L6 8.25L4.66667 10.25H2.66667L2 10.9167L4 12.25L5.33333 14.25L6 13.5833V11.5833L8 10.25L10.3333 13.7833C10.5333 14.05 10.8667 14.1167 11.2 13.9833L11.5333 13.85C11.8 13.65 11.9333 13.3833 11.8667 13.05Z" stroke="#6B7280" stroke-width="1.33333" stroke-linecap="round" stroke-linejoin="round"/>
</svg>
