<svg width="33" height="32" viewBox="0 0 33 32" fill="none" xmlns="http://www.w3.org/2000/svg">
<path d="M22.3132 28V25.3333C22.3132 23.9188 21.7512 22.5623 20.7511 21.5621C19.7509 20.5619 18.3943 20 16.9798 20H8.97982C7.56533 20 6.20878 20.5619 5.20858 21.5621C4.20839 22.5623 3.64648 23.9188 3.64648 25.3333V28" stroke="#4B5563" stroke-width="2.66667" stroke-linecap="round" stroke-linejoin="round"/>
<path d="M12.9798 14.6667C15.9253 14.6667 18.3132 12.2789 18.3132 9.33333C18.3132 6.38781 15.9253 4 12.9798 4C10.0343 4 7.64648 6.38781 7.64648 9.33333C7.64648 12.2789 10.0343 14.6667 12.9798 14.6667Z" stroke="#4B5563" stroke-width="2.66667" stroke-linecap="round" stroke-linejoin="round"/>
<path d="M30.3135 28V25.3333C30.3126 24.1516 29.9193 23.0037 29.1953 22.0698C28.4713 21.1358 27.4576 20.4688 26.3135 20.1733" stroke="#4B5563" stroke-width="2.66667" stroke-linecap="round" stroke-linejoin="round"/>
<path d="M22.3135 4.17334C23.4607 4.46707 24.4775 5.13427 25.2037 6.06975C25.9298 7.00523 26.3239 8.15578 26.3239 9.34001C26.3239 10.5242 25.9298 11.6748 25.2037 12.6103C24.4775 13.5457 23.4607 14.2129 22.3135 14.5067" stroke="#4B5563" stroke-width="2.66667" stroke-linecap="round" stroke-linejoin="round"/>
</svg>
