<svg width="17" height="16" viewBox="0 0 17 16" fill="none" xmlns="http://www.w3.org/2000/svg">
<path d="M9.66357 11.9998V3.99984C9.66357 3.64622 9.5231 3.30708 9.27305 3.05703C9.023 2.80698 8.68386 2.6665 8.33024 2.6665H2.99691C2.64329 2.6665 2.30415 2.80698 2.0541 3.05703C1.80405 3.30708 1.66357 3.64622 1.66357 3.99984V11.3332C1.66357 11.51 1.73381 11.6796 1.85884 11.8046C1.98386 11.9296 2.15343 11.9998 2.33024 11.9998H3.66357" stroke="#6B7280" stroke-width="1.33333" stroke-linecap="round" stroke-linejoin="round"/>
<path d="M10.3301 12H6.33008" stroke="#6B7280" stroke-width="1.33333" stroke-linecap="round" stroke-linejoin="round"/>
<path d="M12.9969 12.0002H14.3302C14.5071 12.0002 14.6766 11.9299 14.8016 11.8049C14.9267 11.6799 14.9969 11.5103 14.9969 11.3335V8.90016C14.9966 8.74887 14.9449 8.60217 14.8502 8.48416L12.5302 5.58416C12.4679 5.50608 12.3888 5.44302 12.2988 5.39963C12.2088 5.35624 12.1102 5.33364 12.0102 5.3335H9.66357" stroke="#6B7280" stroke-width="1.33333" stroke-linecap="round" stroke-linejoin="round"/>
<path d="M11.6634 13.3332C12.3998 13.3332 12.9967 12.7362 12.9967 11.9998C12.9967 11.2635 12.3998 10.6665 11.6634 10.6665C10.927 10.6665 10.3301 11.2635 10.3301 11.9998C10.3301 12.7362 10.927 13.3332 11.6634 13.3332Z" stroke="#6B7280" stroke-width="1.33333" stroke-linecap="round" stroke-linejoin="round"/>
<path d="M4.99691 13.3332C5.73329 13.3332 6.33024 12.7362 6.33024 11.9998C6.33024 11.2635 5.73329 10.6665 4.99691 10.6665C4.26053 10.6665 3.66357 11.2635 3.66357 11.9998C3.66357 12.7362 4.26053 13.3332 4.99691 13.3332Z" stroke="#6B7280" stroke-width="1.33333" stroke-linecap="round" stroke-linejoin="round"/>
</svg>
