<svg width="33" height="32" viewBox="0 0 33 32" fill="none" xmlns="http://www.w3.org/2000/svg">
<path d="M27.6468 17.3333C27.6468 23.9999 22.9801 27.3333 17.4335 29.2666C17.143 29.365 16.8275 29.3603 16.5401 29.2533C10.9801 27.3333 6.31348 23.9999 6.31348 17.3333V7.99995C6.31348 7.64633 6.45395 7.30719 6.704 7.05714C6.95405 6.80709 7.29319 6.66662 7.64681 6.66662C10.3135 6.66662 13.6468 5.06662 15.9668 3.03995C16.2493 2.79861 16.6086 2.66602 16.9801 2.66602C17.3517 2.66602 17.711 2.79861 17.9935 3.03995C20.3268 5.07995 23.6468 6.66662 26.3135 6.66662C26.6671 6.66662 27.0062 6.80709 27.2563 7.05714C27.5063 7.30719 27.6468 7.64633 27.6468 7.99995V17.3333Z" stroke="#4B5563" stroke-width="2.66667" stroke-linecap="round" stroke-linejoin="round"/>
</svg>
