<svg width="33" height="32" viewBox="0 0 33 32" fill="none" xmlns="http://www.w3.org/2000/svg">
<path d="M19.3267 24.0002V8.00016C19.3267 7.29292 19.0457 6.61464 18.5456 6.11454C18.0455 5.61445 17.3672 5.3335 16.66 5.3335H5.99333C5.28608 5.3335 4.60781 5.61445 4.10771 6.11454C3.60761 6.61464 3.32666 7.29292 3.32666 8.00016V22.6668C3.32666 23.0205 3.46714 23.3596 3.71718 23.6096C3.96723 23.8597 4.30637 24.0002 4.65999 24.0002H7.32666" stroke="#4B5563" stroke-width="2.66667" stroke-linecap="round" stroke-linejoin="round"/>
<path d="M20.6602 24H12.6602" stroke="#4B5563" stroke-width="2.66667" stroke-linecap="round" stroke-linejoin="round"/>
<path d="M25.9933 23.9998H28.66C29.0136 23.9998 29.3528 23.8594 29.6028 23.6093C29.8529 23.3593 29.9933 23.0201 29.9933 22.6665V17.7998C29.9928 17.4973 29.8893 17.2039 29.7 16.9678L25.06 11.1678C24.9353 11.0117 24.7771 10.8855 24.5971 10.7988C24.4171 10.712 24.2198 10.6668 24.02 10.6665H19.3267" stroke="#4B5563" stroke-width="2.66667" stroke-linecap="round" stroke-linejoin="round"/>
<path d="M23.3268 26.6668C24.7996 26.6668 25.9935 25.4729 25.9935 24.0002C25.9935 22.5274 24.7996 21.3335 23.3268 21.3335C21.8541 21.3335 20.6602 22.5274 20.6602 24.0002C20.6602 25.4729 21.8541 26.6668 23.3268 26.6668Z" stroke="#4B5563" stroke-width="2.66667" stroke-linecap="round" stroke-linejoin="round"/>
<path d="M9.99333 26.6668C11.4661 26.6668 12.66 25.4729 12.66 24.0002C12.66 22.5274 11.4661 21.3335 9.99333 21.3335C8.52057 21.3335 7.32666 22.5274 7.32666 24.0002C7.32666 25.4729 8.52057 26.6668 9.99333 26.6668Z" stroke="#4B5563" stroke-width="2.66667" stroke-linecap="round" stroke-linejoin="round"/>
</svg>
