<svg width="17" height="16" viewBox="0 0 17 16" fill="none" xmlns="http://www.w3.org/2000/svg">
<path d="M11.327 14V12.6667C11.327 11.9594 11.046 11.2811 10.5459 10.781C10.0458 10.281 9.36756 10 8.66032 10H4.66032C3.95308 10 3.2748 10.281 2.7747 10.781C2.2746 11.2811 1.99365 11.9594 1.99365 12.6667V14" stroke="#6B7280" stroke-width="1.33333" stroke-linecap="round" stroke-linejoin="round"/>
<path d="M6.66032 7.33333C8.13308 7.33333 9.32699 6.13943 9.32699 4.66667C9.32699 3.19391 8.13308 2 6.66032 2C5.18756 2 3.99365 3.19391 3.99365 4.66667C3.99365 6.13943 5.18756 7.33333 6.66032 7.33333Z" stroke="#6B7280" stroke-width="1.33333" stroke-linecap="round" stroke-linejoin="round"/>
<path d="M15.3267 13.9998V12.6664C15.3262 12.0756 15.1296 11.5016 14.7676 11.0346C14.4056 10.5677 13.8987 10.2341 13.3267 10.0864" stroke="#6B7280" stroke-width="1.33333" stroke-linecap="round" stroke-linejoin="round"/>
<path d="M11.3267 2.08643C11.9003 2.23329 12.4087 2.56689 12.7718 3.03463C13.1348 3.50237 13.3319 4.07765 13.3319 4.66976C13.3319 5.26187 13.1348 5.83715 12.7718 6.30489C12.4087 6.77262 11.9003 7.10623 11.3267 7.25309" stroke="#6B7280" stroke-width="1.33333" stroke-linecap="round" stroke-linejoin="round"/>
</svg>
