<svg width="21" height="20" viewBox="0 0 21 20" fill="none" xmlns="http://www.w3.org/2000/svg">
<path d="M2.16797 16.6667C2.16797 17.1088 2.34356 17.5327 2.65612 17.8453C2.96868 18.1578 3.39261 18.3334 3.83464 18.3334H17.168C17.61 18.3334 18.0339 18.1578 18.3465 17.8453C18.659 17.5327 18.8346 17.1088 18.8346 16.6667V6.66675L13.0013 10.8334V6.66675L7.16797 10.8334V3.33341C7.16797 2.89139 6.99237 2.46746 6.67981 2.1549C6.36725 1.84234 5.94333 1.66675 5.5013 1.66675H3.83464C3.39261 1.66675 2.96868 1.84234 2.65612 2.1549C2.34356 2.46746 2.16797 2.89139 2.16797 3.33341V16.6667Z" stroke="white" stroke-width="1.66667" stroke-linecap="round" stroke-linejoin="round"/>
<path d="M14.668 15H15.5013" stroke="white" stroke-width="1.66667" stroke-linecap="round" stroke-linejoin="round"/>
<path d="M10.5 15H11.3333" stroke="white" stroke-width="1.66667" stroke-linecap="round" stroke-linejoin="round"/>
<path d="M6.33203 15H7.16536" stroke="white" stroke-width="1.66667" stroke-linecap="round" stroke-linejoin="round"/>
</svg>
