<svg width="25" height="24" viewBox="0 0 25 24" fill="none" xmlns="http://www.w3.org/2000/svg">
<path d="M20.6602 13C20.6602 18 17.1602 20.5 13.0002 21.95C12.7823 22.0238 12.5457 22.0202 12.3302 21.94C8.16016 20.5 4.66016 18 4.66016 13V5.99996C4.66016 5.73474 4.76551 5.48039 4.95305 5.29285C5.14059 5.10532 5.39494 4.99996 5.66016 4.99996C7.66016 4.99996 10.1602 3.79996 11.9002 2.27996C12.112 2.09896 12.3815 1.99951 12.6602 1.99951C12.9388 1.99951 13.2083 2.09896 13.4202 2.27996C15.1702 3.80996 17.6602 4.99996 19.6602 4.99996C19.9254 4.99996 20.1797 5.10532 20.3673 5.29285C20.5548 5.48039 20.6602 5.73474 20.6602 5.99996V13Z" stroke="#F23481" stroke-width="2" stroke-linecap="round" stroke-linejoin="round"/>
<path d="M9.66016 12L11.6602 14L15.6602 10" stroke="#F23481" stroke-width="2" stroke-linecap="round" stroke-linejoin="round"/>
</svg>
