<svg width="25" height="24" viewBox="0 0 25 24" fill="none" xmlns="http://www.w3.org/2000/svg">
<path d="M4.65966 13.9999C4.47043 14.0006 4.28489 13.9475 4.12461 13.8469C3.96434 13.7463 3.83589 13.6023 3.75421 13.4316C3.67253 13.2609 3.64095 13.0705 3.66316 12.8826C3.68537 12.6946 3.76044 12.5169 3.87966 12.3699L13.7797 2.16992C13.8539 2.0842 13.9551 2.02628 14.0666 2.00565C14.1782 1.98503 14.2934 2.00293 14.3934 2.05642C14.4934 2.10991 14.5722 2.19582 14.617 2.30003C14.6617 2.40424 14.6697 2.52057 14.6397 2.62992L12.7197 8.64992C12.663 8.80144 12.644 8.96444 12.6643 9.12493C12.6845 9.28541 12.7433 9.4386 12.8358 9.57135C12.9282 9.70409 13.0514 9.81243 13.1949 9.88708C13.3384 9.96172 13.4979 10.0004 13.6597 9.99992H20.6597C20.8489 9.99927 21.0344 10.0523 21.1947 10.1529C21.355 10.2535 21.4834 10.3976 21.5651 10.5683C21.6468 10.739 21.6784 10.9293 21.6562 11.1173C21.634 11.3052 21.5589 11.483 21.4397 11.6299L11.5397 21.8299C11.4654 21.9156 11.3642 21.9736 11.2527 21.9942C11.1412 22.0148 11.0259 21.9969 10.9259 21.9434C10.8259 21.8899 10.7471 21.804 10.7023 21.6998C10.6576 21.5956 10.6496 21.4793 10.6797 21.3699L12.5997 15.3499C12.6563 15.1984 12.6753 15.0354 12.6551 14.8749C12.6348 14.7144 12.576 14.5612 12.4836 14.4285C12.3911 14.2957 12.2679 14.1874 12.1244 14.1128C11.9809 14.0381 11.8214 13.9994 11.6597 13.9999H4.65966Z" stroke="#F23481" stroke-width="2" stroke-linecap="round" stroke-linejoin="round"/>
</svg>
