<svg width="33" height="32" viewBox="0 0 33 32" fill="none" xmlns="http://www.w3.org/2000/svg">
<path d="M21.1359 17.1866L23.1559 28.5546C23.1785 28.6885 23.1598 28.8261 23.1021 28.949C23.0444 29.0719 22.9506 29.1742 22.8332 29.2424C22.7157 29.3105 22.5803 29.3412 22.445 29.3303C22.3097 29.3193 22.1809 29.2674 22.0759 29.1813L17.3026 25.5986C17.0721 25.4265 16.7922 25.3335 16.5046 25.3335C16.2169 25.3335 15.937 25.4265 15.7066 25.5986L10.9252 29.18C10.8203 29.2659 10.6917 29.3178 10.5566 29.3287C10.4214 29.3396 10.2861 29.3091 10.1688 29.2411C10.0515 29.1732 9.95761 29.0711 9.8998 28.9484C9.84199 28.8258 9.82296 28.6884 9.84525 28.5546L11.8639 17.1866" stroke="#F23481" stroke-width="2.66667" stroke-linecap="round" stroke-linejoin="round"/>
<path d="M16.5 18.6667C20.9183 18.6667 24.5 15.085 24.5 10.6667C24.5 6.24841 20.9183 2.66669 16.5 2.66669C12.0817 2.66669 8.5 6.24841 8.5 10.6667C8.5 15.085 12.0817 18.6667 16.5 18.6667Z" stroke="#F23481" stroke-width="2.66667" stroke-linecap="round" stroke-linejoin="round"/>
</svg>
