<svg width="33" height="33" viewBox="0 0 33 33" fill="none" xmlns="http://www.w3.org/2000/svg">
<path d="M19.1667 24.5V8.50004C19.1667 7.7928 18.8858 7.11452 18.3857 6.61442C17.8856 6.11433 17.2073 5.83337 16.5001 5.83337H5.83341C5.12617 5.83337 4.44789 6.11433 3.9478 6.61442C3.4477 7.11452 3.16675 7.7928 3.16675 8.50004V23.1667C3.16675 23.5203 3.30722 23.8595 3.55727 24.1095C3.80732 24.3596 4.14646 24.5 4.50008 24.5H7.16675" stroke="#F23481" stroke-width="2.66667" stroke-linecap="round" stroke-linejoin="round"/>
<path d="M20.5 24.5H12.5" stroke="#F23481" stroke-width="2.66667" stroke-linecap="round" stroke-linejoin="round"/>
<path d="M25.8334 24.5H28.5001C28.8537 24.5 29.1928 24.3595 29.4429 24.1094C29.6929 23.8594 29.8334 23.5202 29.8334 23.1666V18.3C29.8329 17.9974 29.7294 17.704 29.5401 17.468L24.9001 11.668C24.7754 11.5118 24.6172 11.3857 24.4372 11.2989C24.2571 11.2121 24.0599 11.1669 23.8601 11.1666H19.1667" stroke="#F23481" stroke-width="2.66667" stroke-linecap="round" stroke-linejoin="round"/>
<path d="M23.1667 27.1667C24.6394 27.1667 25.8333 25.9728 25.8333 24.5C25.8333 23.0273 24.6394 21.8334 23.1667 21.8334C21.6939 21.8334 20.5 23.0273 20.5 24.5C20.5 25.9728 21.6939 27.1667 23.1667 27.1667Z" stroke="#F23481" stroke-width="2.66667" stroke-linecap="round" stroke-linejoin="round"/>
<path d="M9.83341 27.1667C11.3062 27.1667 12.5001 25.9728 12.5001 24.5C12.5001 23.0273 11.3062 21.8334 9.83341 21.8334C8.36066 21.8334 7.16675 23.0273 7.16675 24.5C7.16675 25.9728 8.36066 27.1667 9.83341 27.1667Z" stroke="#F23481" stroke-width="2.66667" stroke-linecap="round" stroke-linejoin="round"/>
</svg>
