<svg width="33" height="32" viewBox="0 0 33 32" fill="none" xmlns="http://www.w3.org/2000/svg">
<path d="M10.5 5.69336L22.5 12.56" stroke="#F23481" stroke-width="2.66667" stroke-linecap="round" stroke-linejoin="round"/>
<path d="M28.5 10.6666C28.4995 10.199 28.3761 9.73972 28.1421 9.33485C27.908 8.92999 27.5717 8.59379 27.1667 8.35997L17.8333 3.02664C17.4279 2.79259 16.9681 2.66937 16.5 2.66937C16.0319 2.66937 15.5721 2.79259 15.1667 3.02664L5.83333 8.35997C5.42835 8.59379 5.09197 8.92999 4.85795 9.33485C4.62392 9.73972 4.50048 10.199 4.5 10.6666V21.3333C4.50048 21.8009 4.62392 22.2602 4.85795 22.6651C5.09197 23.07 5.42835 23.4062 5.83333 23.64L15.1667 28.9733C15.5721 29.2074 16.0319 29.3306 16.5 29.3306C16.9681 29.3306 17.4279 29.2074 17.8333 28.9733L27.1667 23.64C27.5717 23.4062 27.908 23.07 28.1421 22.6651C28.3761 22.2602 28.4995 21.8009 28.5 21.3333V10.6666Z" stroke="#F23481" stroke-width="2.66667" stroke-linecap="round" stroke-linejoin="round"/>
<path d="M4.8999 9.33331L16.4999 16L28.0999 9.33331" stroke="#F23481" stroke-width="2.66667" stroke-linecap="round" stroke-linejoin="round"/>
<path d="M16.5 29.3333V16" stroke="#F23481" stroke-width="2.66667" stroke-linecap="round" stroke-linejoin="round"/>
</svg>
