<svg width="32" height="32" viewBox="0 0 32 32" fill="none" xmlns="http://www.w3.org/2000/svg">
<path d="M21.3333 28V25.3333C21.3333 23.9188 20.7714 22.5623 19.7712 21.5621C18.771 20.5619 17.4145 20 16 20H8.00001C6.58552 20 5.22896 20.5619 4.22877 21.5621C3.22858 22.5623 2.66667 23.9188 2.66667 25.3333V28" stroke="white" stroke-width="2.66667" stroke-linecap="round" stroke-linejoin="round"/>
<path d="M12 14.6667C14.9455 14.6667 17.3333 12.2789 17.3333 9.33333C17.3333 6.38781 14.9455 4 12 4C9.05449 4 6.66667 6.38781 6.66667 9.33333C6.66667 12.2789 9.05449 14.6667 12 14.6667Z" stroke="white" stroke-width="2.66667" stroke-linecap="round" stroke-linejoin="round"/>
<path d="M29.3333 28V25.3333C29.3324 24.1516 28.9391 23.0037 28.2151 22.0698C27.4912 21.1358 26.4775 20.4688 25.3333 20.1733" stroke="white" stroke-width="2.66667" stroke-linecap="round" stroke-linejoin="round"/>
<path d="M21.3333 4.17334C22.4805 4.46707 23.4974 5.13427 24.2235 6.06975C24.9496 7.00523 25.3438 8.15578 25.3438 9.34001C25.3438 10.5242 24.9496 11.6748 24.2235 12.6103C23.4974 13.5457 22.4805 14.2129 21.3333 14.5067" stroke="white" stroke-width="2.66667" stroke-linecap="round" stroke-linejoin="round"/>
</svg>
