<svg width="32" height="32" viewBox="0 0 32 32" fill="none" xmlns="http://www.w3.org/2000/svg">
<path d="M18.6667 24V8.00004C18.6667 7.2928 18.3857 6.61452 17.8856 6.11442C17.3855 5.61433 16.7073 5.33337 16 5.33337H5.33335C4.62611 5.33337 3.94783 5.61433 3.44774 6.11442C2.94764 6.61452 2.66669 7.2928 2.66669 8.00004V22.6667C2.66669 23.0203 2.80716 23.3595 3.05721 23.6095C3.30726 23.8596 3.6464 24 4.00002 24H6.66669" stroke="white" stroke-width="2.66667" stroke-linecap="round" stroke-linejoin="round"/>
<path d="M20 24H12" stroke="white" stroke-width="2.66667" stroke-linecap="round" stroke-linejoin="round"/>
<path d="M25.3334 24H28C28.3536 24 28.6928 23.8595 28.9428 23.6094C29.1929 23.3594 29.3334 23.0202 29.3334 22.6666V17.8C29.3328 17.4974 29.2294 17.204 29.04 16.968L24.4 11.168C24.2753 11.0118 24.1171 10.8857 23.9371 10.7989C23.7571 10.7121 23.5599 10.6669 23.36 10.6666H18.6667" stroke="white" stroke-width="2.66667" stroke-linecap="round" stroke-linejoin="round"/>
<path d="M22.6667 26.6667C24.1394 26.6667 25.3333 25.4728 25.3333 24C25.3333 22.5273 24.1394 21.3334 22.6667 21.3334C21.1939 21.3334 20 22.5273 20 24C20 25.4728 21.1939 26.6667 22.6667 26.6667Z" stroke="white" stroke-width="2.66667" stroke-linecap="round" stroke-linejoin="round"/>
<path d="M9.33335 26.6667C10.8061 26.6667 12 25.4728 12 24C12 22.5273 10.8061 21.3334 9.33335 21.3334C7.86059 21.3334 6.66669 22.5273 6.66669 24C6.66669 25.4728 7.86059 26.6667 9.33335 26.6667Z" stroke="white" stroke-width="2.66667" stroke-linecap="round" stroke-linejoin="round"/>
</svg>
