<svg width="33" height="32" viewBox="0 0 33 32" fill="none" xmlns="http://www.w3.org/2000/svg">
<path d="M3.65039 26.6667C3.65039 27.3739 3.93134 28.0522 4.43144 28.5523C4.93154 29.0524 5.60981 29.3334 6.31706 29.3334H27.6504C28.3576 29.3334 29.0359 29.0524 29.536 28.5523C30.0361 28.0522 30.3171 27.3739 30.3171 26.6667V10.6667L20.9837 17.3334V10.6667L11.6504 17.3334V5.33335C11.6504 4.62611 11.3694 3.94783 10.8693 3.44774C10.3692 2.94764 9.69097 2.66669 8.98372 2.66669H6.31706C5.60981 2.66669 4.93154 2.94764 4.43144 3.44774C3.93134 3.94783 3.65039 4.62611 3.65039 5.33335V26.6667Z" stroke="white" stroke-width="2.66667" stroke-linecap="round" stroke-linejoin="round"/>
<path d="M23.6504 24H24.9837" stroke="white" stroke-width="2.66667" stroke-linecap="round" stroke-linejoin="round"/>
<path d="M16.9844 24H18.3177" stroke="white" stroke-width="2.66667" stroke-linecap="round" stroke-linejoin="round"/>
<path d="M10.3184 24H11.6517" stroke="white" stroke-width="2.66667" stroke-linecap="round" stroke-linejoin="round"/>
</svg>
