<svg width="33" height="33" viewBox="0 0 33 33" fill="none" xmlns="http://www.w3.org/2000/svg">
<path d="M21.1362 18.0667L23.1562 29.4347C23.1788 29.5685 23.16 29.7061 23.1023 29.829C23.0446 29.9519 22.9508 30.0542 22.8334 30.1224C22.716 30.1905 22.5806 30.2212 22.4452 30.2103C22.3099 30.1994 22.1811 30.1474 22.0762 30.0613L17.3028 26.4786C17.0724 26.3065 16.7925 26.2135 16.5048 26.2135C16.2172 26.2135 15.9373 26.3065 15.7068 26.4786L10.9255 30.06C10.8206 30.1459 10.692 30.1978 10.5568 30.2087C10.4217 30.2196 10.2864 30.1891 10.169 30.1211C10.0517 30.0532 9.95786 29.9511 9.90005 29.8284C9.84224 29.7058 9.82321 29.5684 9.84549 29.4347L11.8642 18.0667" stroke="#EC4899" stroke-width="2.66667" stroke-linecap="round" stroke-linejoin="round"/>
<path d="M16.5 19.5466C20.9183 19.5466 24.5 15.9649 24.5 11.5466C24.5 7.12835 20.9183 3.54663 16.5 3.54663C12.0817 3.54663 8.5 7.12835 8.5 11.5466C8.5 15.9649 12.0817 19.5466 16.5 19.5466Z" stroke="#EC4899" stroke-width="2.66667" stroke-linecap="round" stroke-linejoin="round"/>
</svg>
