<svg width="33" height="32" viewBox="0 0 33 32" fill="none" xmlns="http://www.w3.org/2000/svg">
<path d="M19.1665 23.9999V7.99992C19.1665 7.29267 18.8856 6.6144 18.3855 6.1143C17.8854 5.6142 17.2071 5.33325 16.4998 5.33325H5.83317C5.12593 5.33325 4.44765 5.6142 3.94755 6.1143C3.44746 6.6144 3.1665 7.29267 3.1665 7.99992V22.6666C3.1665 23.0202 3.30698 23.3593 3.55703 23.6094C3.80708 23.8594 4.14622 23.9999 4.49984 23.9999H7.1665" stroke="#EC4899" stroke-width="2.66667" stroke-linecap="round" stroke-linejoin="round"/>
<path d="M20.5 24H12.5" stroke="#EC4899" stroke-width="2.66667" stroke-linecap="round" stroke-linejoin="round"/>
<path d="M25.8332 24.0001H28.4998C28.8535 24.0001 29.1926 23.8596 29.4426 23.6096C29.6927 23.3595 29.8332 23.0204 29.8332 22.6667V17.8001C29.8326 17.4975 29.7292 17.2041 29.5398 16.9681L24.8998 11.1681C24.7751 11.0119 24.6169 10.8858 24.4369 10.799C24.2569 10.7122 24.0597 10.667 23.8598 10.6667H19.1665" stroke="#EC4899" stroke-width="2.66667" stroke-linecap="round" stroke-linejoin="round"/>
<path d="M23.1667 26.6666C24.6394 26.6666 25.8333 25.4727 25.8333 23.9999C25.8333 22.5272 24.6394 21.3333 23.1667 21.3333C21.6939 21.3333 20.5 22.5272 20.5 23.9999C20.5 25.4727 21.6939 26.6666 23.1667 26.6666Z" stroke="#EC4899" stroke-width="2.66667" stroke-linecap="round" stroke-linejoin="round"/>
<path d="M9.83317 26.6666C11.3059 26.6666 12.4998 25.4727 12.4998 23.9999C12.4998 22.5272 11.3059 21.3333 9.83317 21.3333C8.36041 21.3333 7.1665 22.5272 7.1665 23.9999C7.1665 25.4727 8.36041 26.6666 9.83317 26.6666Z" stroke="#EC4899" stroke-width="2.66667" stroke-linecap="round" stroke-linejoin="round"/>
</svg>
