<svg width="33" height="33" viewBox="0 0 33 33" fill="none" xmlns="http://www.w3.org/2000/svg">
<path d="M10.5 6.07336L22.5 12.94" stroke="#EC4899" stroke-width="2.66667" stroke-linecap="round" stroke-linejoin="round"/>
<path d="M28.5 11.0467C28.4995 10.5791 28.3761 10.1198 28.1421 9.71492C27.908 9.31006 27.5717 8.97385 27.1667 8.74004L17.8333 3.4067C17.4279 3.17266 16.9681 3.04944 16.5 3.04944C16.0319 3.04944 15.5721 3.17266 15.1667 3.4067L5.83333 8.74004C5.42835 8.97385 5.09197 9.31006 4.85795 9.71492C4.62392 10.1198 4.50048 10.5791 4.5 11.0467V21.7134C4.50048 22.181 4.62392 22.6403 4.85795 23.0452C5.09197 23.45 5.42835 23.7862 5.83333 24.02L15.1667 29.3534C15.5721 29.5874 16.0319 29.7106 16.5 29.7106C16.9681 29.7106 17.4279 29.5874 17.8333 29.3534L27.1667 24.02C27.5717 23.7862 27.908 23.45 28.1421 23.0452C28.3761 22.6403 28.4995 22.181 28.5 21.7134V11.0467Z" stroke="#EC4899" stroke-width="2.66667" stroke-linecap="round" stroke-linejoin="round"/>
<path d="M4.8999 9.71338L16.4999 16.38L28.0999 9.71338" stroke="#EC4899" stroke-width="2.66667" stroke-linecap="round" stroke-linejoin="round"/>
<path d="M16.5 29.7133V16.38" stroke="#EC4899" stroke-width="2.66667" stroke-linecap="round" stroke-linejoin="round"/>
</svg>
