<svg width="33" height="33" viewBox="0 0 33 33" fill="none" xmlns="http://www.w3.org/2000/svg">
<path d="M19.1665 24.3798V8.3798C19.1665 7.67256 18.8856 6.99428 18.3855 6.49418C17.8854 5.99409 17.2071 5.71313 16.4998 5.71313H5.83317C5.12593 5.71313 4.44765 5.99409 3.94755 6.49418C3.44746 6.99428 3.1665 7.67256 3.1665 8.3798V23.0465C3.1665 23.4001 3.30698 23.7392 3.55703 23.9893C3.80708 24.2393 4.14622 24.3798 4.49984 24.3798H7.1665" stroke="#EC4899" stroke-width="2.66667" stroke-linecap="round" stroke-linejoin="round"/>
<path d="M20.5 24.3799H12.5" stroke="#EC4899" stroke-width="2.66667" stroke-linecap="round" stroke-linejoin="round"/>
<path d="M25.8332 24.38H28.4998C28.8535 24.38 29.1926 24.2395 29.4426 23.9894C29.6927 23.7394 29.8332 23.4003 29.8332 23.0466V18.18C29.8326 17.8774 29.7292 17.584 29.5398 17.348L24.8998 11.548C24.7751 11.3918 24.6169 11.2657 24.4369 11.1789C24.2569 11.0921 24.0597 11.0469 23.8598 11.0466H19.1665" stroke="#EC4899" stroke-width="2.66667" stroke-linecap="round" stroke-linejoin="round"/>
<path d="M23.1667 27.0465C24.6394 27.0465 25.8333 25.8526 25.8333 24.3798C25.8333 22.907 24.6394 21.7131 23.1667 21.7131C21.6939 21.7131 20.5 22.907 20.5 24.3798C20.5 25.8526 21.6939 27.0465 23.1667 27.0465Z" stroke="#EC4899" stroke-width="2.66667" stroke-linecap="round" stroke-linejoin="round"/>
<path d="M9.83317 27.0465C11.3059 27.0465 12.4998 25.8526 12.4998 24.3798C12.4998 22.907 11.3059 21.7131 9.83317 21.7131C8.36041 21.7131 7.1665 22.907 7.1665 24.3798C7.1665 25.8526 8.36041 27.0465 9.83317 27.0465Z" stroke="#EC4899" stroke-width="2.66667" stroke-linecap="round" stroke-linejoin="round"/>
</svg>
