<svg width="49" height="48" viewBox="0 0 49 48" fill="none" xmlns="http://www.w3.org/2000/svg">
<path d="M44.79 16.7V40C44.79 41.0609 44.3686 42.0783 43.6184 42.8285C42.8683 43.5786 41.8509 44 40.79 44H8.79001C7.72914 44 6.71173 43.5786 5.96158 42.8285C5.21144 42.0783 4.79001 41.0609 4.79001 40V16.7C4.79323 15.9023 5.03488 15.1238 5.48393 14.4645C5.93298 13.8052 6.56891 13.2952 7.31001 13L23.31 6.60004C24.2604 6.22154 25.3196 6.22154 26.27 6.60004L42.27 13C43.0111 13.2952 43.647 13.8052 44.0961 14.4645C44.5451 15.1238 44.7868 15.9023 44.79 16.7Z" stroke="#F23481" stroke-width="4" stroke-linecap="round" stroke-linejoin="round"/>
<path d="M12.79 36H36.79" stroke="#F23481" stroke-width="4" stroke-linecap="round" stroke-linejoin="round"/>
<path d="M12.79 28H36.79" stroke="#F23481" stroke-width="4" stroke-linecap="round" stroke-linejoin="round"/>
<path d="M36.79 20H12.79V44H36.79V20Z" stroke="#F23481" stroke-width="4" stroke-linecap="round" stroke-linejoin="round"/>
</svg>
