<svg width="48" height="48" viewBox="0 0 48 48" fill="none" xmlns="http://www.w3.org/2000/svg">
<path d="M39.99 26C39.99 36 32.99 41 24.67 43.9C24.2343 44.0477 23.7611 44.0406 23.33 43.88C14.99 41 7.99 36 7.99 26V12C7.99 11.4696 8.20071 10.9609 8.57578 10.5858C8.95086 10.2108 9.45956 10 9.99 10C13.99 10 18.99 7.60004 22.47 4.56004C22.8937 4.19804 23.4327 3.99915 23.99 3.99915C24.5473 3.99915 25.0863 4.19804 25.51 4.56004C29.01 7.62004 33.99 10 37.99 10C38.5204 10 39.0291 10.2108 39.4042 10.5858C39.7793 10.9609 39.99 11.4696 39.99 12V26Z" stroke="#F23481" stroke-width="4" stroke-linecap="round" stroke-linejoin="round"/>
</svg>
