<svg width="49" height="48" viewBox="0 0 49 48" fill="none" xmlns="http://www.w3.org/2000/svg">
<path d="M28.595 36V12C28.595 10.9391 28.1735 9.92172 27.4234 9.17157C26.6733 8.42143 25.6558 8 24.595 8H8.59497C7.5341 8 6.51669 8.42143 5.76654 9.17157C5.0164 9.92172 4.59497 10.9391 4.59497 12V34C4.59497 34.5304 4.80568 35.0391 5.18076 35.4142C5.55583 35.7893 6.06454 36 6.59497 36H10.595" stroke="#F23481" stroke-width="4" stroke-linecap="round" stroke-linejoin="round"/>
<path d="M30.595 36H18.595" stroke="#F23481" stroke-width="4" stroke-linecap="round" stroke-linejoin="round"/>
<path d="M38.595 36H42.595C43.1254 36 43.6341 35.7893 44.0092 35.4142C44.3843 35.0391 44.595 34.5304 44.595 34V26.7C44.5942 26.2461 44.439 25.806 44.155 25.452L37.195 16.752C37.0079 16.5178 36.7706 16.3286 36.5006 16.1984C36.2306 16.0682 35.9347 16.0004 35.635 16H28.595" stroke="#F23481" stroke-width="4" stroke-linecap="round" stroke-linejoin="round"/>
<path d="M34.595 40C36.8041 40 38.595 38.2091 38.595 36C38.595 33.7909 36.8041 32 34.595 32C32.3858 32 30.595 33.7909 30.595 36C30.595 38.2091 32.3858 40 34.595 40Z" stroke="#F23481" stroke-width="4" stroke-linecap="round" stroke-linejoin="round"/>
<path d="M14.595 40C16.8041 40 18.595 38.2091 18.595 36C18.595 33.7909 16.8041 32 14.595 32C12.3858 32 10.595 33.7909 10.595 36C10.595 38.2091 12.3858 40 14.595 40Z" stroke="#F23481" stroke-width="4" stroke-linecap="round" stroke-linejoin="round"/>
</svg>
