<svg width="49" height="48" viewBox="0 0 49 48" fill="none" xmlns="http://www.w3.org/2000/svg">
<path d="M32.4 42V38C32.4 35.8783 31.5571 33.8434 30.0568 32.3431C28.5566 30.8429 26.5217 30 24.4 30H12.4C10.2783 30 8.24343 30.8429 6.74314 32.3431C5.24285 33.8434 4.39999 35.8783 4.39999 38V42" stroke="#F23481" stroke-width="4" stroke-linecap="round" stroke-linejoin="round"/>
<path d="M18.4 22C22.8183 22 26.4 18.4183 26.4 14C26.4 9.58172 22.8183 6 18.4 6C13.9817 6 10.4 9.58172 10.4 14C10.4 18.4183 13.9817 22 18.4 22Z" stroke="#F23481" stroke-width="4" stroke-linecap="round" stroke-linejoin="round"/>
<path d="M44.4 42V38C44.3987 36.2275 43.8087 34.5056 42.7227 33.1046C41.6367 31.7037 40.1163 30.7031 38.4 30.26" stroke="#F23481" stroke-width="4" stroke-linecap="round" stroke-linejoin="round"/>
<path d="M32.4 6.26001C34.1208 6.70061 35.6461 7.70141 36.7353 9.10463C37.8245 10.5078 38.4157 12.2337 38.4157 14.01C38.4157 15.7864 37.8245 17.5122 36.7353 18.9154C35.6461 20.3186 34.1208 21.3194 32.4 21.76" stroke="#F23481" stroke-width="4" stroke-linecap="round" stroke-linejoin="round"/>
</svg>
