<svg width="17" height="16" viewBox="0 0 17 16" fill="none" xmlns="http://www.w3.org/2000/svg">
<path d="M1.75391 13.3333C1.75391 13.6869 1.89438 14.026 2.14443 14.2761C2.39448 14.5261 2.73362 14.6666 3.08724 14.6666H13.7539C14.1075 14.6666 14.4467 14.5261 14.6967 14.2761C14.9468 14.026 15.0872 13.6869 15.0872 13.3333V5.33325L10.4206 8.66659V5.33325L5.75391 8.66659V2.66659C5.75391 2.31296 5.61343 1.97382 5.36338 1.72378C5.11333 1.47373 4.7742 1.33325 4.42057 1.33325H3.08724C2.73362 1.33325 2.39448 1.47373 2.14443 1.72378C1.89438 1.97382 1.75391 2.31296 1.75391 2.66659V13.3333Z" stroke="#4B5563" stroke-width="1.33333" stroke-linecap="round" stroke-linejoin="round"/>
<path d="M11.7539 12H12.4206" stroke="#4B5563" stroke-width="1.33333" stroke-linecap="round" stroke-linejoin="round"/>
<path d="M8.41992 12H9.08659" stroke="#4B5563" stroke-width="1.33333" stroke-linecap="round" stroke-linejoin="round"/>
<path d="M5.08594 12H5.7526" stroke="#4B5563" stroke-width="1.33333" stroke-linecap="round" stroke-linejoin="round"/>
</svg>
